<?xml version="1.0" encoding="UTF-8" standalone="no"?>
<svg
   version="1.1"
   width="283.4646"
   height="283.4646"
   id="svg12"
   xmlns:xlink="http://www.w3.org/1999/xlink"
   xmlns="http://www.w3.org/2000/svg"
   xmlns:svg="http://www.w3.org/2000/svg">
  <defs
     id="defs8">
    <linearGradient
       id="grad1">
      <stop
         offset="0%"
         stop-color="#5596ff"
         stop-opacity="1.0000"
         id="stop2" />
      <stop
         offset="100%"
         stop-color="#1256c4"
         stop-opacity="1.0000"
         id="stop4" />
    </linearGradient>
    <linearGradient
       xlink:href="#grad1"
       id="grad2"
       x1="75.994827"
       y1="75.995473"
       x2="75.994827"
       y2="207.46967"
       gradientTransform="matrix(2.1491803,0,0,2.1491803,-163.07972,-163.07972)"
       gradientUnits="userSpaceOnUse" />
  </defs>
  <path
     d="m 250.49471,190.42504 h -68.33669 c -9.15548,0 -16.82374,-3.21753 -23.02261,-9.67882 -6.20167,-6.46384 -9.28616,-14.46931 -9.28616,-24.04497 V 138.46766 H 95.461143 c -4.787933,0 -8.398333,1.64776 -10.857419,4.96997 -2.433512,3.32241 -3.663699,7.5868 -3.663699,12.79338 0,4.28891 1.413727,8.03255 4.264393,11.19721 2.826167,3.19196 6.254531,4.78793 10.256725,4.78793 H 138.99442 V 190.5815 H 95.461143 c -9.941226,0 -17.738649,-3.50595 -23.415481,-10.49055 -5.677047,-6.9859 -8.527714,-15.72402 -8.527714,-26.21458 0,-9.57543 3.058707,-17.60797 9.181492,-24.06926 6.149867,-6.46127 13.709377,-9.7061 22.761703,-9.7061 h 53.423977 c -3.11415,-6.17308 -7.29987,-9.26166 -12.58513,-9.26166 H 77.854239 V 92.474004 h 58.289501 c 9.1555,0 16.64665,3.291464 22.4993,9.862356 5.68327,6.38112 8.60379,14.19939 8.78067,23.48017 h 0.005 v 0.36064 l 0.004,0.54395 v 23.38066 h -0.004 v 6.65127 c 0,4.26439 1.41351,7.87501 4.26439,10.85743 2.82488,2.95532 6.30612,4.44921 10.43877,4.44921 h 24.38347 V 93.728695 h 17.5809 v 78.330995 h 26.37232 c 4.15844,0 7.63708,-1.4926 10.49033,-4.44921 2.85196,-2.98242 4.26311,-6.59174 4.26311,-10.85743 V 93.728695 h 17.58111 V 155.3419 c 0,9.57565 -2.95533,17.71158 -8.89458,24.43505 -6.20014,7.08927 -13.99628,10.64809 -23.41418,10.64809 z M 37.740308,0.24751366 H 245.31671 c 10.3199,0 19.69633,4.21668224 26.48578,11.00614234 v 0.03482 c 6.78947,6.790749 11.00615,16.157071 11.00615,26.452481 v 40.029898 h -17.57467 v -40.0299 c 0,-5.481901 -2.23686,-10.466054 -5.84082,-14.077745 l -0.0167,0.01676 c -3.61322,-3.613186 -8.59221,-5.857786 -14.05971,-5.857786 H 37.740308 c -5.481685,0 -10.466054,2.236861 -14.077743,5.841028 -3.604168,3.611691 -5.84103,8.595844 -5.84103,14.077745 V 245.31606 c 0,5.46751 2.2446,10.4465 5.857794,14.05947 l -0.01676,0.017 c 3.611689,3.60396 8.596058,5.84081 14.077744,5.84081 H 245.31671 c 5.4675,0 10.44649,-2.2446 14.05968,-5.85779 3.61297,-3.61297 5.85758,-8.59196 5.85758,-14.05947 V 205.286 h 17.57467 v 40.03011 c 0,10.31969 -4.21668,19.69633 -11.00615,26.48578 -6.78945,6.78948 -16.16588,11.00616 -26.48578,11.00616 H 37.740308 c -10.29541,0 -19.661516,-4.21668 -26.452481,-11.00616 h -0.03482 C 4.4635502,265.01239 0.24686797,255.63575 0.24686797,245.31606 V 37.740954 c 0,-10.29541 4.21668223,-19.661732 11.00614303,-26.452481 l 0.03482,-0.03482 C 18.078792,4.4641959 27.444898,0.24751366 37.740308,0.24751366 Z"
     style="fill:url(#grad2);stroke-width:2.14917"
     id="path10" />
</svg>
